<mxfile host="Electron" agent="Mozilla/5.0 (Windows NT 10.0; Win64; x64) AppleWebKit/537.36 (KHTML, like Gecko) draw.io/26.0.4 Chrome/128.0.6613.186 Electron/32.2.5 Safari/537.36" version="26.0.4">
  <diagram name="Page-1" id="aSGXNN8HjAnGPD_1fyNz">
    <mxGraphModel dx="1194" dy="824" grid="1" gridSize="10" guides="1" tooltips="1" connect="1" arrows="1" fold="1" page="1" pageScale="1" pageWidth="850" pageHeight="1100" math="0" shadow="0">
      <root>
        <mxCell id="0" />
        <mxCell id="1" parent="0" />
        <mxCell id="KAQp_Bj-GSJuuBoCt9Tg-6" value="" style="edgeStyle=orthogonalEdgeStyle;rounded=0;orthogonalLoop=1;jettySize=auto;html=1;" parent="1" source="KAQp_Bj-GSJuuBoCt9Tg-1" target="KAQp_Bj-GSJuuBoCt9Tg-2" edge="1">
          <mxGeometry relative="1" as="geometry" />
        </mxCell>
        <mxCell id="KAQp_Bj-GSJuuBoCt9Tg-1" value="Start" style="ellipse;whiteSpace=wrap;html=1;" parent="1" vertex="1">
          <mxGeometry x="50" y="170" width="120" height="50" as="geometry" />
        </mxCell>
        <mxCell id="KAQp_Bj-GSJuuBoCt9Tg-7" style="edgeStyle=orthogonalEdgeStyle;rounded=0;orthogonalLoop=1;jettySize=auto;html=1;entryX=0;entryY=0.5;entryDx=0;entryDy=0;" parent="1" source="KAQp_Bj-GSJuuBoCt9Tg-2" target="KAQp_Bj-GSJuuBoCt9Tg-3" edge="1">
          <mxGeometry relative="1" as="geometry" />
        </mxCell>
        <mxCell id="KAQp_Bj-GSJuuBoCt9Tg-2" value="PUSH S" style="rounded=0;whiteSpace=wrap;html=1;" parent="1" vertex="1">
          <mxGeometry x="50" y="260" width="120" height="40" as="geometry" />
        </mxCell>
        <mxCell id="KAQp_Bj-GSJuuBoCt9Tg-8" style="edgeStyle=orthogonalEdgeStyle;rounded=0;orthogonalLoop=1;jettySize=auto;html=1;entryX=0;entryY=0.5;entryDx=0;entryDy=0;" parent="1" source="KAQp_Bj-GSJuuBoCt9Tg-3" target="KAQp_Bj-GSJuuBoCt9Tg-4" edge="1">
          <mxGeometry relative="1" as="geometry" />
        </mxCell>
        <mxCell id="KAQp_Bj-GSJuuBoCt9Tg-25" style="edgeStyle=orthogonalEdgeStyle;rounded=0;orthogonalLoop=1;jettySize=auto;html=1;entryX=0.5;entryY=0;entryDx=0;entryDy=0;" parent="1" source="KAQp_Bj-GSJuuBoCt9Tg-3" target="KAQp_Bj-GSJuuBoCt9Tg-12" edge="1">
          <mxGeometry relative="1" as="geometry">
            <Array as="points">
              <mxPoint x="440" y="340" />
              <mxPoint x="560" y="340" />
            </Array>
          </mxGeometry>
        </mxCell>
        <mxCell id="KAQp_Bj-GSJuuBoCt9Tg-26" style="edgeStyle=orthogonalEdgeStyle;rounded=0;orthogonalLoop=1;jettySize=auto;html=1;entryX=0.5;entryY=0;entryDx=0;entryDy=0;" parent="1" source="KAQp_Bj-GSJuuBoCt9Tg-3" target="KAQp_Bj-GSJuuBoCt9Tg-13" edge="1">
          <mxGeometry relative="1" as="geometry">
            <Array as="points">
              <mxPoint x="440" y="340" />
              <mxPoint x="710" y="340" />
            </Array>
          </mxGeometry>
        </mxCell>
        <mxCell id="KAQp_Bj-GSJuuBoCt9Tg-35" style="edgeStyle=orthogonalEdgeStyle;rounded=0;orthogonalLoop=1;jettySize=auto;html=1;entryX=0.5;entryY=1;entryDx=0;entryDy=0;" parent="1" source="KAQp_Bj-GSJuuBoCt9Tg-3" target="KAQp_Bj-GSJuuBoCt9Tg-27" edge="1">
          <mxGeometry relative="1" as="geometry">
            <Array as="points">
              <mxPoint x="440" y="220" />
              <mxPoint x="300" y="220" />
            </Array>
          </mxGeometry>
        </mxCell>
        <mxCell id="KAQp_Bj-GSJuuBoCt9Tg-37" style="edgeStyle=orthogonalEdgeStyle;rounded=0;orthogonalLoop=1;jettySize=auto;html=1;entryX=0.5;entryY=1;entryDx=0;entryDy=0;" parent="1" source="KAQp_Bj-GSJuuBoCt9Tg-3" target="KAQp_Bj-GSJuuBoCt9Tg-29" edge="1">
          <mxGeometry relative="1" as="geometry">
            <Array as="points">
              <mxPoint x="440" y="220" />
              <mxPoint x="600" y="220" />
            </Array>
          </mxGeometry>
        </mxCell>
        <mxCell id="KAQp_Bj-GSJuuBoCt9Tg-3" value="POP" style="rhombus;whiteSpace=wrap;html=1;" parent="1" vertex="1">
          <mxGeometry x="400" y="240" width="80" height="80" as="geometry" />
        </mxCell>
        <mxCell id="KAQp_Bj-GSJuuBoCt9Tg-9" style="edgeStyle=orthogonalEdgeStyle;rounded=0;orthogonalLoop=1;jettySize=auto;html=1;entryX=0.5;entryY=1;entryDx=0;entryDy=0;" parent="1" source="KAQp_Bj-GSJuuBoCt9Tg-4" target="KAQp_Bj-GSJuuBoCt9Tg-5" edge="1">
          <mxGeometry relative="1" as="geometry" />
        </mxCell>
        <mxCell id="KAQp_Bj-GSJuuBoCt9Tg-4" value="READ&amp;nbsp; 4" style="rounded=0;whiteSpace=wrap;html=1;" parent="1" vertex="1">
          <mxGeometry x="710" y="260" width="120" height="40" as="geometry" />
        </mxCell>
        <mxCell id="KAQp_Bj-GSJuuBoCt9Tg-5" value="Accept" style="ellipse;whiteSpace=wrap;html=1;" parent="1" vertex="1">
          <mxGeometry x="710" y="170" width="120" height="50" as="geometry" />
        </mxCell>
        <mxCell id="KAQp_Bj-GSJuuBoCt9Tg-18" value="" style="edgeStyle=orthogonalEdgeStyle;rounded=0;orthogonalLoop=1;jettySize=auto;html=1;" parent="1" source="KAQp_Bj-GSJuuBoCt9Tg-10" target="KAQp_Bj-GSJuuBoCt9Tg-14" edge="1">
          <mxGeometry relative="1" as="geometry" />
        </mxCell>
        <mxCell id="KAQp_Bj-GSJuuBoCt9Tg-10" value="PUSH P" style="rounded=0;whiteSpace=wrap;html=1;" parent="1" vertex="1">
          <mxGeometry x="180" y="400" width="120" height="40" as="geometry" />
        </mxCell>
        <mxCell id="KAQp_Bj-GSJuuBoCt9Tg-19" value="" style="edgeStyle=orthogonalEdgeStyle;rounded=0;orthogonalLoop=1;jettySize=auto;html=1;" parent="1" source="KAQp_Bj-GSJuuBoCt9Tg-11" target="KAQp_Bj-GSJuuBoCt9Tg-15" edge="1">
          <mxGeometry relative="1" as="geometry" />
        </mxCell>
        <mxCell id="KAQp_Bj-GSJuuBoCt9Tg-11" value="PUSH M" style="rounded=0;whiteSpace=wrap;html=1;" parent="1" vertex="1">
          <mxGeometry x="330" y="400" width="120" height="40" as="geometry" />
        </mxCell>
        <mxCell id="KAQp_Bj-GSJuuBoCt9Tg-20" value="" style="edgeStyle=orthogonalEdgeStyle;rounded=0;orthogonalLoop=1;jettySize=auto;html=1;" parent="1" source="KAQp_Bj-GSJuuBoCt9Tg-12" target="KAQp_Bj-GSJuuBoCt9Tg-16" edge="1">
          <mxGeometry relative="1" as="geometry" />
        </mxCell>
        <mxCell id="KAQp_Bj-GSJuuBoCt9Tg-12" value="PUSH Q" style="rounded=0;whiteSpace=wrap;html=1;" parent="1" vertex="1">
          <mxGeometry x="500" y="400" width="120" height="40" as="geometry" />
        </mxCell>
        <mxCell id="KAQp_Bj-GSJuuBoCt9Tg-21" value="" style="edgeStyle=orthogonalEdgeStyle;rounded=0;orthogonalLoop=1;jettySize=auto;html=1;" parent="1" source="KAQp_Bj-GSJuuBoCt9Tg-13" target="KAQp_Bj-GSJuuBoCt9Tg-17" edge="1">
          <mxGeometry relative="1" as="geometry" />
        </mxCell>
        <mxCell id="KAQp_Bj-GSJuuBoCt9Tg-13" value="PUSH R" style="rounded=0;whiteSpace=wrap;html=1;" parent="1" vertex="1">
          <mxGeometry x="650" y="400" width="120" height="40" as="geometry" />
        </mxCell>
        <mxCell id="KAQp_Bj-GSJuuBoCt9Tg-46" style="edgeStyle=orthogonalEdgeStyle;rounded=0;orthogonalLoop=1;jettySize=auto;html=1;" parent="1" source="KAQp_Bj-GSJuuBoCt9Tg-14" edge="1">
          <mxGeometry relative="1" as="geometry">
            <mxPoint x="240" y="560" as="targetPoint" />
          </mxGeometry>
        </mxCell>
        <mxCell id="KAQp_Bj-GSJuuBoCt9Tg-14" value="PUSH S" style="rounded=0;whiteSpace=wrap;html=1;" parent="1" vertex="1">
          <mxGeometry x="180" y="480" width="120" height="40" as="geometry" />
        </mxCell>
        <mxCell id="KAQp_Bj-GSJuuBoCt9Tg-47" style="edgeStyle=orthogonalEdgeStyle;rounded=0;orthogonalLoop=1;jettySize=auto;html=1;" parent="1" source="KAQp_Bj-GSJuuBoCt9Tg-15" edge="1">
          <mxGeometry relative="1" as="geometry">
            <mxPoint x="390" y="560" as="targetPoint" />
          </mxGeometry>
        </mxCell>
        <mxCell id="KAQp_Bj-GSJuuBoCt9Tg-15" value="PUSH S" style="rounded=0;whiteSpace=wrap;html=1;" parent="1" vertex="1">
          <mxGeometry x="330" y="480" width="120" height="40" as="geometry" />
        </mxCell>
        <mxCell id="KAQp_Bj-GSJuuBoCt9Tg-48" style="edgeStyle=orthogonalEdgeStyle;rounded=0;orthogonalLoop=1;jettySize=auto;html=1;" parent="1" source="KAQp_Bj-GSJuuBoCt9Tg-16" edge="1">
          <mxGeometry relative="1" as="geometry">
            <mxPoint x="560" y="560" as="targetPoint" />
          </mxGeometry>
        </mxCell>
        <mxCell id="KAQp_Bj-GSJuuBoCt9Tg-16" value="PUSH S" style="rounded=0;whiteSpace=wrap;html=1;" parent="1" vertex="1">
          <mxGeometry x="500" y="480" width="120" height="40" as="geometry" />
        </mxCell>
        <mxCell id="KAQp_Bj-GSJuuBoCt9Tg-44" style="edgeStyle=orthogonalEdgeStyle;rounded=0;orthogonalLoop=1;jettySize=auto;html=1;" parent="1" edge="1">
          <mxGeometry relative="1" as="geometry">
            <mxPoint x="175" y="280" as="targetPoint" />
            <mxPoint x="705" y="520" as="sourcePoint" />
            <Array as="points">
              <mxPoint x="705" y="560" />
              <mxPoint x="176" y="560" />
            </Array>
          </mxGeometry>
        </mxCell>
        <mxCell id="KAQp_Bj-GSJuuBoCt9Tg-17" value="PUSH S" style="rounded=0;whiteSpace=wrap;html=1;" parent="1" vertex="1">
          <mxGeometry x="650" y="480" width="120" height="40" as="geometry" />
        </mxCell>
        <mxCell id="KAQp_Bj-GSJuuBoCt9Tg-22" value="&lt;b&gt;&lt;font style=&quot;font-size: 22px;&quot;&gt;S -&amp;gt; QS | RS | 4&lt;/font&gt;&lt;/b&gt;&lt;div&gt;&lt;b&gt;&lt;font style=&quot;font-size: 22px;&quot;&gt;Q -&amp;gt; SP&lt;br&gt;R -&amp;gt; SM&amp;nbsp;&lt;br&gt;P -&amp;gt; +&lt;/font&gt;&lt;/b&gt;&lt;/div&gt;&lt;div&gt;&lt;b&gt;&lt;font style=&quot;font-size: 22px;&quot;&gt;M-&amp;gt; *&lt;/font&gt;&lt;/b&gt;&lt;/div&gt;&lt;div&gt;&lt;b&gt;&lt;font style=&quot;font-size: 22px;&quot;&gt;String 4+4*4&lt;/font&gt;&lt;/b&gt;&lt;/div&gt;" style="rounded=0;whiteSpace=wrap;html=1;align=left;" parent="1" vertex="1">
          <mxGeometry x="65" y="620" width="360" height="180" as="geometry" />
        </mxCell>
        <mxCell id="KAQp_Bj-GSJuuBoCt9Tg-23" style="edgeStyle=orthogonalEdgeStyle;rounded=0;orthogonalLoop=1;jettySize=auto;html=1;entryX=0.683;entryY=-0.1;entryDx=0;entryDy=0;entryPerimeter=0;" parent="1" source="KAQp_Bj-GSJuuBoCt9Tg-3" target="KAQp_Bj-GSJuuBoCt9Tg-11" edge="1">
          <mxGeometry relative="1" as="geometry">
            <Array as="points">
              <mxPoint x="440" y="340" />
              <mxPoint x="412" y="340" />
            </Array>
          </mxGeometry>
        </mxCell>
        <mxCell id="KAQp_Bj-GSJuuBoCt9Tg-24" style="edgeStyle=orthogonalEdgeStyle;rounded=0;orthogonalLoop=1;jettySize=auto;html=1;entryX=0.575;entryY=-0.1;entryDx=0;entryDy=0;entryPerimeter=0;" parent="1" source="KAQp_Bj-GSJuuBoCt9Tg-3" target="KAQp_Bj-GSJuuBoCt9Tg-10" edge="1">
          <mxGeometry relative="1" as="geometry">
            <Array as="points">
              <mxPoint x="440" y="340" />
              <mxPoint x="249" y="340" />
            </Array>
          </mxGeometry>
        </mxCell>
        <mxCell id="KAQp_Bj-GSJuuBoCt9Tg-30" style="edgeStyle=orthogonalEdgeStyle;rounded=0;orthogonalLoop=1;jettySize=auto;html=1;" parent="1" source="KAQp_Bj-GSJuuBoCt9Tg-27" edge="1">
          <mxGeometry relative="1" as="geometry">
            <mxPoint x="220" y="280" as="targetPoint" />
            <Array as="points">
              <mxPoint x="300" y="50" />
              <mxPoint x="220" y="50" />
            </Array>
          </mxGeometry>
        </mxCell>
        <mxCell id="KAQp_Bj-GSJuuBoCt9Tg-27" value="READ 1" style="rounded=0;whiteSpace=wrap;html=1;" parent="1" vertex="1">
          <mxGeometry x="240" y="100" width="120" height="40" as="geometry" />
        </mxCell>
        <mxCell id="KAQp_Bj-GSJuuBoCt9Tg-32" style="edgeStyle=orthogonalEdgeStyle;rounded=0;orthogonalLoop=1;jettySize=auto;html=1;" parent="1" source="KAQp_Bj-GSJuuBoCt9Tg-28" edge="1">
          <mxGeometry relative="1" as="geometry">
            <mxPoint x="220" y="50" as="targetPoint" />
            <Array as="points">
              <mxPoint x="450" y="50" />
            </Array>
          </mxGeometry>
        </mxCell>
        <mxCell id="KAQp_Bj-GSJuuBoCt9Tg-28" value="READ 2" style="rounded=0;whiteSpace=wrap;html=1;" parent="1" vertex="1">
          <mxGeometry x="390" y="100" width="120" height="40" as="geometry" />
        </mxCell>
        <mxCell id="KAQp_Bj-GSJuuBoCt9Tg-34" style="edgeStyle=orthogonalEdgeStyle;rounded=0;orthogonalLoop=1;jettySize=auto;html=1;" parent="1" source="KAQp_Bj-GSJuuBoCt9Tg-29" edge="1">
          <mxGeometry relative="1" as="geometry">
            <mxPoint x="220" y="70" as="targetPoint" />
            <Array as="points">
              <mxPoint x="600" y="70" />
              <mxPoint x="220" y="70" />
            </Array>
          </mxGeometry>
        </mxCell>
        <mxCell id="KAQp_Bj-GSJuuBoCt9Tg-29" value="READ 3" style="rounded=0;whiteSpace=wrap;html=1;" parent="1" vertex="1">
          <mxGeometry x="540" y="100" width="120" height="40" as="geometry" />
        </mxCell>
        <mxCell id="KAQp_Bj-GSJuuBoCt9Tg-36" style="edgeStyle=orthogonalEdgeStyle;rounded=0;orthogonalLoop=1;jettySize=auto;html=1;entryX=0.417;entryY=1;entryDx=0;entryDy=0;entryPerimeter=0;" parent="1" source="KAQp_Bj-GSJuuBoCt9Tg-3" target="KAQp_Bj-GSJuuBoCt9Tg-28" edge="1">
          <mxGeometry relative="1" as="geometry" />
        </mxCell>
        <mxCell id="KAQp_Bj-GSJuuBoCt9Tg-38" value="Q" style="text;html=1;align=center;verticalAlign=middle;whiteSpace=wrap;rounded=0;" parent="1" vertex="1">
          <mxGeometry x="190" y="350" width="60" height="30" as="geometry" />
        </mxCell>
        <mxCell id="KAQp_Bj-GSJuuBoCt9Tg-39" value="R" style="text;html=1;align=center;verticalAlign=middle;resizable=0;points=[];autosize=1;strokeColor=none;fillColor=none;" parent="1" vertex="1">
          <mxGeometry x="365" y="368" width="30" height="30" as="geometry" />
        </mxCell>
        <mxCell id="KAQp_Bj-GSJuuBoCt9Tg-40" value="S" style="text;html=1;align=center;verticalAlign=middle;resizable=0;points=[];autosize=1;strokeColor=none;fillColor=none;" parent="1" vertex="1">
          <mxGeometry x="525" y="358" width="30" height="30" as="geometry" />
        </mxCell>
        <mxCell id="KAQp_Bj-GSJuuBoCt9Tg-41" value="S" style="text;html=1;align=center;verticalAlign=middle;resizable=0;points=[];autosize=1;strokeColor=none;fillColor=none;" parent="1" vertex="1">
          <mxGeometry x="675" y="358" width="30" height="30" as="geometry" />
        </mxCell>
        <mxCell id="KAQp_Bj-GSJuuBoCt9Tg-49" value="S" style="text;html=1;align=center;verticalAlign=middle;resizable=0;points=[];autosize=1;strokeColor=none;fillColor=none;" parent="1" vertex="1">
          <mxGeometry x="565" y="148" width="30" height="30" as="geometry" />
        </mxCell>
        <mxCell id="KAQp_Bj-GSJuuBoCt9Tg-50" value="P" style="text;html=1;align=center;verticalAlign=middle;resizable=0;points=[];autosize=1;strokeColor=none;fillColor=none;" parent="1" vertex="1">
          <mxGeometry x="415" y="148" width="30" height="30" as="geometry" />
        </mxCell>
        <mxCell id="KAQp_Bj-GSJuuBoCt9Tg-51" value="M" style="text;html=1;align=center;verticalAlign=middle;resizable=0;points=[];autosize=1;strokeColor=none;fillColor=none;" parent="1" vertex="1">
          <mxGeometry x="275" y="148" width="30" height="30" as="geometry" />
        </mxCell>
        <mxCell id="KAQp_Bj-GSJuuBoCt9Tg-52" value="+" style="text;html=1;align=center;verticalAlign=middle;resizable=0;points=[];autosize=1;strokeColor=none;fillColor=none;" parent="1" vertex="1">
          <mxGeometry x="445" y="68" width="30" height="30" as="geometry" />
        </mxCell>
        <mxCell id="KAQp_Bj-GSJuuBoCt9Tg-53" value="4" style="text;html=1;align=center;verticalAlign=middle;resizable=0;points=[];autosize=1;strokeColor=none;fillColor=none;" parent="1" vertex="1">
          <mxGeometry x="605" y="68" width="30" height="30" as="geometry" />
        </mxCell>
        <mxCell id="KAQp_Bj-GSJuuBoCt9Tg-54" value="*" style="text;html=1;align=center;verticalAlign=middle;resizable=0;points=[];autosize=1;strokeColor=none;fillColor=none;" parent="1" vertex="1">
          <mxGeometry x="265" y="68" width="30" height="30" as="geometry" />
        </mxCell>
        <mxCell id="KAQp_Bj-GSJuuBoCt9Tg-55" value="^" style="text;html=1;align=center;verticalAlign=middle;resizable=0;points=[];autosize=1;strokeColor=none;fillColor=none;" parent="1" vertex="1">
          <mxGeometry x="505" y="248" width="30" height="30" as="geometry" />
        </mxCell>
      </root>
    </mxGraphModel>
  </diagram>
</mxfile>
